<?xml version="1.0" encoding="utf-8"?>
<!-- Generator: Adobe Illustrator 25.0.0, SVG Export Plug-In . SVG Version: 6.00 Build 0)  -->
<svg version="1.1" id="圖層_1" xmlns="http://www.w3.org/2000/svg" xmlns:xlink="http://www.w3.org/1999/xlink"  width='28px'
	 viewBox="0 0 20.2 49.9" style="enable-background:new 0 0 20.2 49.9;" xml:space="preserve">
<style type="text/css">
	.st0{fill:#FFFFFF;stroke:#231815;stroke-width:0.5;stroke-miterlimit:10;}
	.st1{fill:#CAE091;stroke:#231815;stroke-width:0.5;stroke-miterlimit:10;}
	.st2{fill:#E84A91;stroke:#231815;stroke-width:0.5;stroke-miterlimit:10;}
</style>
<path class="st0" d="M14.2,36.5c-0.1,0-0.2,0-0.4,0l-0.1-10.3c0-0.7-0.6-1.3-1.4-1.3c0,0,0,0,0,0h-1.2c-0.7,0-1.3,0.6-1.3,1.4
	l0.1,10.3H9.7c-1.2,0-2.2,1-2.2,2.2c0,0,0,0.1,0,0.1c0.1,1.2,1,2.1,2.2,2.1c1.2,0,2.2-0.9,2.3-2.2c0,0,0-0.1,0-0.1
	c0,1.2,1,2.2,2.2,2.2c1.2,0,2.2-1,2.2-2.2C16.4,37.4,15.4,36.4,14.2,36.5C14.2,36.5,14.2,36.5,14.2,36.5L14.2,36.5z"/>
<path class="st1" d="M14.4,33.1l-0.6,0.8c-0.8,1.1-2.4,1.5-3.6,0.8l0,0c-0.9-0.5-1.5-1.4-1.5-2.4l-0.5-9c0-0.5-0.2-1-0.5-1.4
	l-3.1-4.7c-1-1.5-1.1-3.3-0.5-4.9c0.3-0.9,1-1.6,1.9-1.9l0,0c1.5-0.4,3,0.4,3.5,1.9l4.5,7.8c0.2,0.4,0.3,0.8,0.4,1.3l0.6,9.6
	C15,31.9,14.8,32.6,14.4,33.1z"/>
<path class="st2" d="M10,16L10,16c-0.5,0.6-1.1,1-1.9,1.1H8.1c-0.3,0.1-0.6,0-0.7-0.2L5.2,13C4.3,11.7,4.7,9.9,6,9l0,0
	c0.3-0.1,0.6,0,0.7,0.2c0,0,0,0,0,0l3.5,6C10.4,15.5,10.3,15.8,10,16C10.1,16,10,16,10,16z"/>
</svg>
