<svg id="圖層_1" data-name="圖層 1" xmlns="http://www.w3.org/2000/svg" width='13px' viewBox="0 0 14.23 50.81"><defs><style>.cls-1{fill:#fff;}.cls-1,.cls-2,.cls-3{stroke:#231815;stroke-miterlimit:10;stroke-width:0.5px;}.cls-2{fill:#cae091;}.cls-3{fill:#e84a91;}</style></defs><path class="cls-1" d="M261.62,275.85a3.43,3.43,0,0,0-.57.06l-.37-16a2.08,2.08,0,0,0-2.14-2l-1.83,0a2.09,2.09,0,0,0-2,2.13L255,276h-.29a3.44,3.44,0,0,0-3.35,3.64,3.47,3.47,0,0,0,3.38,3.22,3.42,3.42,0,0,0,3.48-3.51,3.44,3.44,0,1,0,3.36-3.51Z" transform="translate(-251.15 -232.31)"/><path class="cls-2" d="M261.73,271.64l-1.2,1a4.41,4.41,0,0,1-5.74-.06h0a4.4,4.4,0,0,1-1.42-4.1l-.46-13.25a4.43,4.43,0,0,0-.19-2.28l0-8.58a8,8,0,0,1,1.13-7.55,4.83,4.83,0,0,1,3.54-2.1h0a4.35,4.35,0,0,1,4.49,4.21l.92,13.82a4.31,4.31,0,0,1,.1,2l.28,14.29A4.45,4.45,0,0,1,261.73,271.64Z" transform="translate(-251.15 -232.31)"/><path class="cls-3" d="M259.89,245h0a4.61,4.61,0,0,1-3.33.09l-.09,0a.82.82,0,0,1-.8-.86l-.12-6.88a4.46,4.46,0,0,1,4.13-4.77h0a.84.84,0,0,1,.8.86l.19,10.7A.85.85,0,0,1,259.89,245Z" transform="translate(-251.15 -232.31)"/></svg>